<svg xmlns="http://www.w3.org/2000/svg" width="1280" height="640" viewBox="0 0 1280 640" role="img" aria-labelledby="title desc">
  <title id="title">热摸爽 GitHub Social Preview</title>
  <desc id="desc">热摸爽：一页看完今天互联网在聊什么。全网热榜、实时热搜、RSS 与历史热点。</desc>
  <defs>
    <linearGradient id="background" x1="0" y1="0" x2="1" y2="1">
      <stop offset="0" stop-color="#fffaf7"/>
      <stop offset="1" stop-color="#f4f6f8"/>
    </linearGradient>
    <linearGradient id="accent" x1="0" y1="0" x2="1" y2="1">
      <stop offset="0" stop-color="#e5484d"/>
      <stop offset="1" stop-color="#f47b45"/>
    </linearGradient>
    <filter id="shadow" x="-20%" y="-20%" width="140%" height="140%">
      <feDropShadow dx="0" dy="18" stdDeviation="30" flood-color="#182230" flood-opacity="0.12"/>
    </filter>
  </defs>
  <rect width="1280" height="640" fill="url(#background)"/>
  <circle cx="1170" cy="-30" r="270" fill="#f8d6cf" opacity="0.45"/>
  <circle cx="90" cy="670" r="250" fill="#dfeaf4" opacity="0.65"/>
  <g filter="url(#shadow)">
    <rect x="96" y="86" width="1088" height="468" rx="36" fill="#ffffff"/>
  </g>
  <rect x="150" y="142" width="88" height="88" rx="22" fill="url(#accent)"/>
  <text x="194" y="203" text-anchor="middle" font-family="PingFang SC, Noto Sans CJK SC, sans-serif" font-size="46" font-weight="700" fill="#ffffff">热</text>
  <text x="270" y="203" font-family="PingFang SC, Noto Sans CJK SC, sans-serif" font-size="64" font-weight="750" fill="#20242a">热摸爽</text>
  <text x="150" y="304" font-family="PingFang SC, Noto Sans CJK SC, sans-serif" font-size="42" font-weight="650" fill="#20242a">一页看完今天互联网在聊什么</text>
  <text x="150" y="376" font-family="PingFang SC, Noto Sans CJK SC, sans-serif" font-size="28" font-weight="500" fill="#68717d">全网热榜 · 实时热搜 · RSS · 历史热点</text>
  <rect x="150" y="431" width="290" height="58" rx="29" fill="#fff1ee"/>
  <text x="295" y="470" text-anchor="middle" font-family="SF Pro Display, Inter, sans-serif" font-size="26" font-weight="650" fill="#c63f3f">remoshuang.com</text>
  <g transform="translate(850 170)">
    <rect x="0" y="0" width="244" height="54" rx="16" fill="#f6f7f8"/>
    <circle cx="30" cy="27" r="8" fill="#e5484d"/>
    <rect x="53" y="18" width="150" height="8" rx="4" fill="#c5cad0"/>
    <rect x="53" y="32" width="112" height="7" rx="3.5" fill="#e1e4e8"/>
    <rect x="0" y="72" width="244" height="54" rx="16" fill="#f6f7f8"/>
    <circle cx="30" cy="99" r="8" fill="#f47b45"/>
    <rect x="53" y="90" width="170" height="8" rx="4" fill="#c5cad0"/>
    <rect x="53" y="104" width="128" height="7" rx="3.5" fill="#e1e4e8"/>
    <rect x="0" y="144" width="244" height="54" rx="16" fill="#f6f7f8"/>
    <circle cx="30" cy="171" r="8" fill="#55ad68"/>
    <rect x="53" y="162" width="136" height="8" rx="4" fill="#c5cad0"/>
    <rect x="53" y="176" width="158" height="7" rx="3.5" fill="#e1e4e8"/>
  </g>
</svg>
